<svg xmlns="http://www.w3.org/2000/svg" width="38.5" height="33.97" viewBox="0 0 38.5 33.97">
  <defs>
    <style>
      .cls-1 {
        fill: #149df4;
        fill-rule: evenodd;
      }
    </style>
  </defs>
  <path id="Фигура_3_копия" data-name="Фигура 3 копия" class="cls-1" d="M542.149,1090.9l-7.957-.74,2.519-2.53-7.917-8a5.445,5.445,0,0,0-7.78,0,5.6,5.6,0,0,0,0,7.86l5.643,5.7-0.016.02,0.482,0.48a8.789,8.789,0,0,1,0,12.39,8.7,8.7,0,0,1-12.335,0l-7.932-7.96-2.446,2.45-0.741-8,7.964,0.75-2.581,2.59,7.753,7.79a5.538,5.538,0,1,0,7.815-7.85l-5.669-5.7,0.037-.03-0.465-.47a8.841,8.841,0,0,1,0-12.41,8.612,8.612,0,0,1,12.279,0l8.1,8.18,2.5-2.51Z" transform="translate(-503.656 -1074.69)"/>
</svg>
