<svg xmlns="http://www.w3.org/2000/svg" width="20" height="10.031" viewBox="0 0 20 10.031">
  <defs>
    <style>
      .cls-1 {
        fill: #fff;
        fill-rule: evenodd;
      }
    </style>
  </defs>
  <path id="Прямоугольник_скругл._углы_30_копия_3" data-name="Прямоугольник, скругл. углы 30 копия 3" class="cls-1" d="M1497,843h18a1,1,0,0,1,0,2h-18A1,1,0,0,1,1497,843Zm14.72-3.722,3.97,3.971a1.019,1.019,0,1,1-1.44,1.441l-3.97-3.971A1.019,1.019,0,0,1,1511.72,839.278Zm0,9.444,3.97-3.971a1.019,1.019,0,0,0-1.44-1.442l-3.97,3.972A1.019,1.019,0,0,0,1511.72,848.722Z" transform="translate(-1496 -839)"/>
</svg>
